:FULLY-SPECIFIED
:DEGREES
1598
root 4.48945 16.5009 -1.97972 -122.514 -86.1008 140.679
lowerback -7.56141 -1.45478 -0.99041
upperback -4.35001 -2.0149 1.02149
thorax -0.183487 -1.0399 1.46
lowerneck -15.0642 -0.600995 1.66207
upperneck 19.5267 -1.47195 0.24333
head 8.56494 -0.613686 -0.376851
rclavicle 5.56597e-015 -2.38542e-015
rhumerus -39.9963 -8.44514 -77.466
rradius 31.5123
rwrist 19.1359
rhand -24.9233 -5.41629
rfingers 7.12502
rthumb 1.58569 -35.3901
lclavicle 5.56597e-015 -2.38542e-015
lhumerus -29.6313 -17.0955 88.3147
lradius 44.9787
lwrist -2.57273
lhand -36.7308 -1.70326
lfingers 7.12502
lthumb -9.8149 28.048
rfemur -44.6793 17.3501 8.00042
rtibia 14.8602
rfoot -6.11618 -25.0185
rtoes -9.07094
lfemur -13.5566 -19.2987 -28.7649
ltibia 13.2472
lfoot -12.8945 27.0143
ltoes -7.15772
1599
root 4.50627 16.4956 -1.98939 -122.359 -86.0555 140.464
lowerback -7.45819 -1.43963 -0.977958
upperback -4.30268 -1.99288 0.97487
thorax -0.194168 -1.02837 1.40867
lowerneck -15.0634 -0.62545 1.66039
upperneck 19.5403 -1.50748 0.24954
head 8.56923 -0.629966 -0.378722
rclavicle 1.19271e-014 -2.38542e-015
rhumerus -40.0868 -8.63553 -77.4202
rradius 31.4859
rwrist 19.2142
rhand -24.9128 -5.45912
rfingers 7.12502
rthumb 1.59583 -35.4329
lclavicle 1.19271e-014 -2.38542e-015
lhumerus -29.5229 -17.3603 88.2758
lradius 45.2967
lwrist -2.60086
lhand -36.7489 -1.74969
lfingers 7.12502
lthumb -9.83237 28.0007
rfemur -44.4272 18.3777 7.3221
rtibia 13.7715
rfoot -6.91337 -26.7026
rtoes -8.464
lfemur -12.8049 -18.9602 -28.9642
ltibia 12.9044
lfoot -12.9725 26.5898
ltoes -7.87835
1600
root 4.52254 16.4892 -2.00052 -121.149 -86.1124 139.29
lowerback -7.46557 -1.49967 -0.994113
upperback -4.28311 -2.07135 1.02446
thorax -0.165095 -1.06688 1.46237
lowerneck -15.0169 -0.605231 1.52667
upperneck 19.5341 -1.45283 0.279669
head 8.56015 -0.611356 -0.339747
rclavicle 1.43125e-014 5.56597e-015
rhumerus -40.0617 -8.54232 -77.3965
rradius 31.4056
rwrist 19.1653
rhand -24.9295 -5.60119
rfingers 7.12502
rthumb 1.57966 -35.5751
lclavicle 1.43125e-014 5.56597e-015
lhumerus -29.4294 -17.4546 88.3382
lradius 45.5532
lwrist -2.41814
lhand -36.7766 -1.84361
lfingers 7.12502
lthumb -9.85908 27.9056
rfemur -44.1851 18.5907 7.3114
rtibia 13.2289
rfoot -7.16949 -27.6171
rtoes -8.87835
lfemur -12.2983 -18.5198 -29.0978
ltibia 12.8248
lfoot -12.9937 26.067
ltoes -9.01295
1601
root 4.53769 16.4827 -2.01218 -121.931 -86.0987 140.043
lowerback -7.43375 -1.47002 -0.872783
upperback -4.22987 -2.03681 0.969067
thorax -0.134597 -1.05146 1.33983
lowerneck -15.0329 -0.594745 1.59666
upperneck 19.5664 -1.45479 0.268997
head 8.5735 -0.608193 -0.355482
rclavicle -2.38542e-015 -1.59028e-015
rhumerus -40.056 -8.72013 -77.4091
rradius 31.1752
rwrist 19.4939
rhand -24.9999 -5.43572
rfingers 7.12502
rthumb 1.51171 -35.4101
lclavicle -2.38542e-015 -1.59028e-015
lhumerus -29.3597 -17.604 88.2646
lradius 45.7973
lwrist -2.44886
lhand -36.7598 -1.74485
lfingers 7.12502
lthumb -9.84294 28.0051
rfemur -43.8793 18.6085 7.62132
rtibia 13.1643
rfoot -7.12827 -27.851
rtoes -8.14929
lfemur -11.8902 -17.9558 -29.2138
ltibia 13.0537
lfoot -13.1836 25.5239
ltoes -10.1259
1602
root 4.54999 16.4732 -2.02179 -120.727 -86.0567 138.828
lowerback -7.43551 -1.47574 -0.839533
upperback -4.21121 -2.04515 0.910148
thorax -0.117267 -1.05653 1.25959
lowerneck -14.951 -0.610001 1.56767
upperneck 19.6118 -1.46742 0.253005
head 8.57394 -0.619043 -0.35747
rclavicle -4.77083e-015 6.36111e-015
rhumerus -40.028 -8.87559 -77.3833
rradius 30.9693
rwrist 19.6321
rhand -25.0316 -5.53091
rfingers 7.12502
rthumb 1.48108 -35.5055
lclavicle -4.77083e-015 6.36111e-015
lhumerus -29.3463 -17.6792 88.2792
lradius 45.9719
lwrist -2.31725
lhand -36.7308 -1.66417
lfingers 7.12502
lthumb -9.8149 28.0871
rfemur -43.4533 17.7095 8.53842
rtibia 13.5753
rfoot -6.62688 -26.9322
rtoes -8.14943
lfemur -11.6046 -17.3911 -29.4476
ltibia 13.5242
lfoot -13.4703 24.8785
ltoes -10.9471
1603
root 4.55854 16.4625 -2.03309 -119.867 -86.0308 137.982
lowerback -7.49655 -1.49308 -0.787865
upperback -4.1969 -2.0707 0.864954
thorax -0.0714347 -1.07084 1.18024
lowerneck -14.9253 -0.575569 1.56575
upperneck 19.7281 -1.41581 0.212615
head 8.60875 -0.59985 -0.365427
rclavicle 2.78299e-014 -1.66979e-014
rhumerus -40.0323 -8.97448 -77.3724
rradius 30.8171
rwrist 19.9864
rhand -25.0061 -5.39849
rfingers 7.12502
rthumb 1.50565 -35.3729
lclavicle 2.78299e-014 -1.66979e-014
lhumerus -29.3834 -17.5545 88.2914
lradius 46.0346
lwrist -2.38116
lhand -36.7993 -1.74091
lfingers 7.12502
lthumb -9.88099 28.0072
rfemur -43.0635 16.6568 9.5954
rtibia 14.3928
rfoot -6.35547 -25.4136
rtoes -8.68422
lfemur -11.4327 -16.7901 -29.6347
ltibia 14.1608
lfoot -13.8279 24.283
ltoes -12.1049
1604
root 4.56544 16.4497 -2.04677 -118.682 -85.9657 136.769
lowerback -7.52946 -1.51528 -0.816322
upperback -4.17017 -2.09711 0.836222
thorax -0.0250802 -1.08384 1.16317
lowerneck -14.9287 -0.560416 1.52168
upperneck 19.8544 -1.37878 0.162911
head 8.65232 -0.591429 -0.371421
rclavicle -2.38542e-015 6.36111e-015
rhumerus -39.959 -9.08286 -77.3232
rradius 30.6266
rwrist 20.2219
rhand -24.8837 -5.46512
rfingers 7.12502
rthumb 1.62387 -35.4387
lclavicle -2.38542e-015 6.36111e-015
lhumerus -29.4072 -17.3071 88.3163
lradius 46.0167
lwrist -2.62474
lhand -36.7252 -1.7109
lfingers 7.12502
lthumb -9.80957 28.0406
rfemur -42.6729 15.5805 10.6497
rtibia 15.5229
rfoot -6.46792 -23.6717
rtoes -9.00891
lfemur -11.2731 -16.0938 -29.8701
ltibia 14.9398
lfoot -14.2127 23.5206
ltoes -13.0286
1605
root 4.56814 16.4357 -2.06041 -116.096 -85.8854 134.139
lowerback -7.55727 -1.54935 -0.831632
upperback -4.17339 -2.14049 0.720657
thorax -0.0157539 -1.10651 1.04892
lowerneck -14.8261 -0.55158 1.55791
upperneck 19.9297 -1.3708 0.125122
head 8.65875 -0.590478 -0.389358
rclavicle -2.38542e-015 2.06736e-014
rhumerus -39.992 -9.30513 -77.3433
rradius 30.4859
rwrist 20.4365
rhand -24.8854 -5.54268
rfingers 7.12502
rthumb 1.62226 -35.5163
lclavicle -2.38542e-015 2.06736e-014
lhumerus -29.626 -17.241 88.366
lradius 46.0755
lwrist -2.51702
lhand -36.882 -1.67073
lfingers 7.12502
lthumb -9.96081 28.0736
rfemur -42.1825 14.523 11.5321
rtibia 16.6697
rfoot -7.28294 -22.0774
rtoes -8.68379
lfemur -11.0113 -15.3873 -30.1793
ltibia 15.5544
lfoot -14.3701 22.7342
ltoes -14.3401
1606
root 4.5695 16.4189 -2.07478 -112.426 -85.833 130.454
lowerback -7.63215 -1.6214 -0.89152
upperback -4.17387 -2.23184 0.656
thorax 0.0268494 -1.15235 1.00673
lowerneck -14.7946 -0.527019 1.49112
upperneck 20.0206 -1.31225 0.070775
head 8.68426 -0.574439 -0.390245
rclavicle -3.02153e-014 1.19271e-014
rhumerus -40.0151 -9.24535 -77.384
rradius 30.4319
rwrist 20.5963
rhand -24.8581 -5.46391
rfingers 7.12502
rthumb 1.64865 -35.4373
lclavicle -3.02153e-014 1.19271e-014
lhumerus -29.7528 -16.96 88.4249
lradius 45.9497
lwrist -2.59083
lhand -36.7971 -1.78766
lfingers 7.12502
lthumb -9.87886 27.9606
rfemur -41.591 13.5736 12.2306
rtibia 17.5634
rfoot -8.17001 -20.8881
rtoes -8.22562
lfemur -10.6962 -14.8102 -30.4445
ltibia 16.013
lfoot -14.4592 21.8471
ltoes -15.2991
1607
root 4.56723 16.4373 -2.08993 -109.091 -85.7822 127.117
lowerback -7.71472 -1.65808 -0.890944
upperback -4.18684 -2.28026 0.557518
thorax 0.0561358 -1.17811 0.899087
lowerneck -14.7794 -0.507843 1.48387
upperneck 20.1077 -1.27841 0.0294131
head 8.71106 -0.564015 -0.399594
rclavicle -1.19271e-014 -4.77083e-015
rhumerus -40.0777 -9.5237 -77.3507
rradius 30.3325
rwrist 20.9622
rhand -24.8817 -5.4337
rfingers 7.12502
rthumb 1.62579 -35.4073
lclavicle -1.19271e-014 -4.77083e-015
lhumerus -29.9371 -16.6395 88.5011
lradius 45.8245
lwrist -2.80726
lhand -36.7049 -1.66612
lfingers 7.12502
lthumb -9.78989 28.0863
rfemur -41.3317 13.3859 12.2973
rtibia 18.1727
rfoot -8.07704 -21.1682
rtoes -8.13098
lfemur -10.3506 -14.4453 -30.5889
ltibia 16.3574
lfoot -14.5897 20.9542
ltoes -16.1032
1608
root 4.56756 16.453 -2.10965 -106.254 -85.857 124.309
lowerback -7.77869 -1.69437 -0.833251
upperback -4.21661 -2.33321 0.52614
thorax 0.0583403 -1.20643 0.82897
lowerneck -14.7207 -0.498582 1.51925
upperneck 20.1314 -1.25028 -0.0801894
head 8.70748 -0.560329 -0.439125
rclavicle 1.27222e-014 -1.74931e-014
rhumerus -40.1749 -9.63196 -77.3764
rradius 30.349
rwrist 20.9187
rhand -24.9683 -5.41362
rfingers 7.12502
rthumb 1.54217 -35.3878
lclavicle 1.27222e-014 -1.74931e-014
lhumerus -30.0887 -16.2609 88.5972
lradius 45.5199
lwrist -3.08306
lhand -36.7836 -1.76078
lfingers 7.12502
lthumb -9.86589 27.9881
rfemur -41.2949 13.8162 12.0027
rtibia 18.4529
rfoot -7.56273 -22.4978
rtoes -8.31968
lfemur -10.0315 -13.9367 -30.5779
ltibia 16.6053
lfoot -14.2423 20.0758
ltoes -17.7778
1609
root 4.56494 16.4678 -2.12551 -103.618 -86.0769 121.697
lowerback -7.90664 -1.68581 -0.548992
upperback -4.22164 -2.34104 0.519796
thorax 0.112745 -1.21539 0.658632
lowerneck -14.6446 -0.513536 1.49212
upperneck 20.1466 -1.25609 -0.118966
head 8.69847 -0.56993 -0.448143
rclavicle 2.94201e-014 -1.11319e-014
rhumerus -40.2443 -9.77755 -77.3334
rradius 30.2442
rwrist 21.2042
rhand -25.0723 -5.42056
rfingers 7.12502
rthumb 1.44178 -35.3954
lclavicle 2.94201e-014 -1.11319e-014
lhumerus -30.2243 -15.8245 88.7744
lradius 45.1194
lwrist -3.47042
lhand -36.5917 -1.6269
lfingers 7.12502
lthumb -9.68075 28.1306
rfemur -40.9887 13.963 12.059
rtibia 18.4282
rfoot -7.10219 -22.8925
rtoes -10.2312
lfemur -9.67922 -13.571 -30.3876
ltibia 16.8526
lfoot -13.9225 19.1316
ltoes -19.3021
1610
root 4.56017 16.4929 -2.14058 -101.416 -86.1269 119.534
lowerback -8.00704 -1.68428 -0.464107
upperback -4.214 -2.34464 0.512246
thorax 0.1724 -1.21885 0.599555
lowerneck -14.7221 -0.489167 1.55767
upperneck 20.1435 -1.21136 -0.233157
head 8.71065 -0.554913 -0.492678
rclavicle 8.74653e-015 -2.38542e-015
rhumerus -40.2127 -9.72047 -77.4076
rradius 30.2249
rwrist 20.944
rhand -25.0216 -5.59888
rfingers 7.12502
rthumb 1.49066 -35.5734
lclavicle 8.74653e-015 -2.38542e-015
lhumerus -30.2916 -15.1825 88.9359
lradius 44.6056
lwrist -3.76459
lhand -36.5367 -1.70959
lfingers 7.12502
lthumb -9.62761 28.0504
rfemur -40.6576 14.1175 11.9859
rtibia 18.3186
rfoot -6.36224 -22.8267
rtoes -11.746
lfemur -9.55322 -13.0762 -30.3421
ltibia 17.4051
lfoot -13.752 18.201
ltoes -20.0116
1611
root 4.54935 16.5101 -2.15956 -99.8605 -86.3141 117.985
lowerback -8.15831 -1.62335 -0.245207
upperback -4.18833 -2.27845 0.50478
thorax 0.272773 -1.18916 0.469251
lowerneck -14.8076 -0.515327 1.64907
upperneck 20.1523 -1.2475 -0.330219
head 8.72758 -0.574162 -0.545345
rclavicle -2.14687e-014 1.66979e-014
rhumerus -40.198 -9.95349 -77.3432
rradius 30.0104
rwrist 21.0654
rhand -25.2088 -5.4464
rfingers 7.12502
rthumb 1.30992 -35.4221
lclavicle -2.14687e-014 1.66979e-014
lhumerus -30.4939 -14.5996 89.0945
lradius 44.162
lwrist -4.13768
lhand -36.4601 -1.85756
lfingers 7.12502
lthumb -9.55379 27.9058
rfemur -40.2643 14.2068 12.2128
rtibia 18.3878
rfoot -5.5694 -22.8561
rtoes -12.9017
lfemur -9.53262 -12.3172 -30.1409
ltibia 18.2724
lfoot -13.6895 17.1365
ltoes -21.1356
